# xmcd
#
# Track frame offsets:
# 150
# 21543
# 67581
# 87331
# 104581
# 150749
# 187174
# 223640
# 251530
# 267574
# 295128
#
# Disc length: 4190 seconds
#
# Revision: 0
# Processed by: cddbd v1.5.2PL0 Copyright (c) Steve Scherf et al.
# Submitted via: Axialis_AX_CDPlayer 2.6
#
DISCID=a4105c0b
DTITLE=AAVV_Classica - Ritratti 05 - Yehudi Menuhin
DYEAR=1900
DGENRE=
TTITLE0=J.S. Bach - Sonata n. 3 in Do Magg. BWV 1005 - I. Adagio
TTITLE1=J.S. Bach - Sonata n. 3 in Do Magg. BWV 1005 - II. Fugue
TTITLE2=J.S. Bach - Sonata n. 3 in Do Magg. BWV 1005 - III. Largo
TTITLE3=J.S. Bach - Sonata n. 3 in Do Magg. BWV 1005 - IV. Allegro assai
TTITLE4=J. Brahms - Sonata n. 1 in Sol Magg., Op.78 - I. Vivace ma non tropp
TTITLE4=o
TTITLE5=J. Brahms - Sonata n. 1 in Sol Magg., Op.78 - II. Adagio
TTITLE6=J. Brahms - Sonata n. 1 in Sol Magg., Op.78 - III. Allegro molto mod
TTITLE6=erato
TTITLE7=J.S. Bach - Sonata n. 3 in Mi Magg. BWV 1016 - I. Adagio
TTITLE8=J.S. Bach - Sonata n. 3 in Mi Magg. BWV 1016 - II. Adagio
TTITLE9=J.S. Bach - Sonata n. 3 in Mi Magg. BWV 1016 - III. Adagio ma non ta
TTITLE9=nto
TTITLE10=J.S. Bach - Sonata n. 3 in Mi Magg. BWV 1016 - IV. Allegro
EXTD=Yehudi Menuhin, vl.\ncon Hephzibah Menuhin, pf.\ncon Wanda Landowska, c
EXTD=embalo
EXTT0=
EXTT1=
EXTT2=
EXTT3=
EXTT4=
EXTT5=
EXTT6=
EXTT7=
EXTT8=
EXTT9=
EXTT10=
PLAYORDER=
